<svg width="227" height="42" viewBox="0 0 227 42" fill="none" xmlns="http://www.w3.org/2000/svg">
<g clip-path="url(#clip0_776_2)">
<path d="M13.1996 7.35227L4.99645 37.8281H0.435014L8.63814 7.35227H13.1996Z" fill="#9AB6FF"/>
<path d="M28.3793 14.9091V18.8864H16.5966V14.9091H28.3793ZM19.2937 34V13.5295C19.2937 12.1457 19.563 10.9981 20.1016 10.0866C20.6484 9.17519 21.3942 8.49159 22.3388 8.03586C23.2834 7.58014 24.3564 7.35227 25.5579 7.35227C26.3699 7.35227 27.1115 7.41442 27.7827 7.53871C28.4621 7.663 28.9676 7.77486 29.299 7.87429L28.3544 11.8516C28.1473 11.7853 27.8904 11.7231 27.5838 11.6651C27.2855 11.6071 26.9789 11.5781 26.6641 11.5781C25.8852 11.5781 25.3424 11.7604 25.0359 12.125C24.7293 12.4813 24.576 12.9826 24.576 13.6289V34H19.2937ZM39.556 34.3729C37.6254 34.3729 35.9558 33.9627 34.5471 33.1424C33.1468 32.3138 32.0655 31.1621 31.3032 29.6871C30.5409 28.204 30.1597 26.4846 30.1597 24.5291C30.1597 22.5571 30.5409 20.8336 31.3032 19.3587C32.0655 17.8755 33.1468 16.7237 34.5471 15.9034C35.9558 15.0748 37.6254 14.6605 39.556 14.6605C41.4867 14.6605 43.1521 15.0748 44.5525 15.9034C45.9611 16.7237 47.0465 17.8755 47.8089 19.3587C48.5712 20.8336 48.9523 22.5571 48.9523 24.5291C48.9523 26.4846 48.5712 28.204 47.8089 29.6871C47.0465 31.1621 45.9611 32.3138 44.5525 33.1424C43.1521 33.9627 41.4867 34.3729 39.556 34.3729ZM39.5809 30.2713C40.4592 30.2713 41.1925 30.0227 41.7808 29.5256C42.3691 29.0201 42.8124 28.3324 43.1107 27.4624C43.4173 26.5923 43.5706 25.6022 43.5706 24.4918C43.5706 23.3815 43.4173 22.3913 43.1107 21.5213C42.8124 20.6513 42.3691 19.9635 41.7808 19.4581C41.1925 18.9527 40.4592 18.6999 39.5809 18.6999C38.6943 18.6999 37.9485 18.9527 37.3437 19.4581C36.7471 19.9635 36.2955 20.6513 35.9889 21.5213C35.6906 22.3913 35.5415 23.3815 35.5415 24.4918C35.5415 25.6022 35.6906 26.5923 35.9889 27.4624C36.2955 28.3324 36.7471 29.0201 37.3437 29.5256C37.9485 30.0227 38.6943 30.2713 39.5809 30.2713ZM55.6826 34L50.4873 14.9091H55.8442L58.8023 27.7358H58.9763L62.0587 14.9091H67.3161L70.4482 27.6612H70.6098L73.5182 14.9091H78.8627L73.6798 34H68.0743L64.7931 21.9936H64.5569L61.2757 34H55.6826ZM87.131 34.3604C85.913 34.3604 84.8275 34.1491 83.8746 33.7266C82.9218 33.2957 82.1677 32.6618 81.6126 31.8249C81.0657 30.9798 80.7923 29.9274 80.7923 28.668C80.7923 27.6074 80.987 26.7166 81.3764 25.9957C81.7659 25.2749 82.2962 24.6948 82.9673 24.2557C83.6385 23.8165 84.4008 23.4851 85.2543 23.2614C86.116 23.0376 87.0192 22.8802 87.9638 22.7891C89.0741 22.6731 89.969 22.5653 90.6484 22.4659C91.3279 22.3582 91.8209 22.2008 92.1275 21.9936C92.4341 21.7865 92.5874 21.4799 92.5874 21.0739V20.9993C92.5874 20.2121 92.3388 19.6031 91.8416 19.1722C91.3527 18.7414 90.6567 18.5259 89.7536 18.5259C88.8007 18.5259 88.0425 18.7372 87.479 19.1598C86.9156 19.5741 86.5427 20.0961 86.3604 20.7259L81.4634 20.3281C81.712 19.1681 82.2009 18.1655 82.93 17.3203C83.6592 16.4669 84.5997 15.8123 85.7514 15.3565C86.9115 14.8925 88.2538 14.6605 89.7784 14.6605C90.839 14.6605 91.854 14.7848 92.8235 15.0334C93.8013 15.282 94.6671 15.6673 95.4212 16.1893C96.1835 16.7113 96.7842 17.3825 97.2234 18.2028C97.6625 19.0148 97.8821 19.9884 97.8821 21.1236V34H92.8608V31.3526H92.7116C92.4051 31.9492 91.9949 32.4754 91.4812 32.9311C90.9674 33.3786 90.3501 33.7307 89.6293 33.9876C88.9084 34.2362 88.0756 34.3604 87.131 34.3604ZM88.6474 30.7063C89.4263 30.7063 90.114 30.553 90.7106 30.2464C91.3072 29.9316 91.7753 29.509 92.1151 28.9787C92.4548 28.4484 92.6246 27.8477 92.6246 27.1765V25.1506C92.4589 25.2583 92.2311 25.3577 91.9411 25.4489C91.6593 25.5317 91.3403 25.6104 90.984 25.685C90.6277 25.7513 90.2714 25.8134 89.9151 25.8714C89.5588 25.9212 89.2357 25.9667 88.9457 26.0082C88.3242 26.0993 87.7815 26.2443 87.3175 26.4432C86.8535 26.642 86.493 26.9113 86.2362 27.2511C85.9793 27.5825 85.8509 27.9968 85.8509 28.494C85.8509 29.2148 86.1119 29.7659 86.6339 30.147C87.1642 30.5199 87.8353 30.7063 88.6474 30.7063ZM101.99 34V14.9091H107.123V18.2401H107.322C107.67 17.0552 108.254 16.1603 109.074 15.5554C109.895 14.9422 110.839 14.6357 111.908 14.6357C112.173 14.6357 112.459 14.6522 112.766 14.6854C113.072 14.7185 113.342 14.7641 113.574 14.8221V19.5202C113.325 19.4457 112.981 19.3794 112.542 19.3214C112.103 19.2634 111.701 19.2344 111.336 19.2344C110.558 19.2344 109.862 19.4042 109.248 19.744C108.644 20.0754 108.163 20.5394 107.807 21.136C107.459 21.7326 107.285 22.4203 107.285 23.1992V34H101.99ZM122.457 34.3107C121.007 34.3107 119.694 33.9379 118.517 33.1921C117.349 32.4381 116.421 31.3319 115.733 29.8736C115.054 28.407 114.714 26.6089 114.714 24.4794C114.714 22.2919 115.066 20.4731 115.771 19.0231C116.475 17.5647 117.411 16.4751 118.579 15.7543C119.756 15.0251 121.045 14.6605 122.445 14.6605C123.514 14.6605 124.405 14.8428 125.117 15.2074C125.838 15.5637 126.418 16.0111 126.857 16.5497C127.305 17.08 127.644 17.602 127.876 18.1158H128.038V8.54545H133.32V34H128.1V30.9425H127.876C127.628 31.4728 127.276 31.9989 126.82 32.521C126.372 33.0347 125.788 33.4614 125.067 33.8011C124.355 34.1409 123.485 34.3107 122.457 34.3107ZM124.135 30.0973C124.989 30.0973 125.71 29.8653 126.298 29.4013C126.894 28.929 127.35 28.2702 127.665 27.4251C127.988 26.5799 128.15 25.5897 128.15 24.4545C128.15 23.3194 127.992 22.3333 127.677 21.4964C127.363 20.6596 126.907 20.0133 126.31 19.5575C125.714 19.1018 124.989 18.8739 124.135 18.8739C123.265 18.8739 122.532 19.1101 121.935 19.5824C121.339 20.0547 120.887 20.7093 120.581 21.5462C120.274 22.383 120.121 23.3525 120.121 24.4545C120.121 25.5649 120.274 26.5468 120.581 27.4002C120.895 28.2454 121.347 28.9083 121.935 29.3888C122.532 29.8612 123.265 30.0973 124.135 30.0973ZM153.558 20.353L148.71 20.6513C148.628 20.237 148.449 19.8641 148.176 19.5327C147.903 19.1929 147.542 18.9237 147.095 18.7248C146.655 18.5176 146.129 18.4141 145.516 18.4141C144.696 18.4141 144.004 18.5881 143.441 18.9361C142.877 19.2758 142.595 19.7315 142.595 20.3033C142.595 20.759 142.778 21.1443 143.142 21.4592C143.507 21.774 144.132 22.0268 145.019 22.2173L148.474 22.9134C150.33 23.2945 151.714 23.9077 152.626 24.7528C153.537 25.598 153.993 26.7083 153.993 28.0838C153.993 29.335 153.624 30.4329 152.887 31.3775C152.157 32.3221 151.155 33.0595 149.879 33.5898C148.611 34.1119 147.148 34.3729 145.491 34.3729C142.964 34.3729 140.951 33.8467 139.451 32.7944C137.959 31.7338 137.085 30.292 136.828 28.4691L142.036 28.1957C142.193 28.9663 142.575 29.5546 143.18 29.9606C143.784 30.3583 144.559 30.5572 145.504 30.5572C146.432 30.5572 147.177 30.379 147.741 30.0227C148.313 29.6581 148.603 29.19 148.611 28.6183C148.603 28.1377 148.4 27.7441 148.002 27.4375C147.604 27.1226 146.991 26.8823 146.162 26.7166L142.856 26.0579C140.992 25.685 139.604 25.0387 138.693 24.119C137.789 23.1992 137.338 22.0268 137.338 20.6016C137.338 19.3752 137.669 18.3188 138.332 17.4322C139.003 16.5456 139.944 15.862 141.154 15.3814C142.372 14.9008 143.797 14.6605 145.429 14.6605C147.84 14.6605 149.738 15.1701 151.122 16.1893C152.514 17.2085 153.326 18.5964 153.558 20.353ZM162.622 8.54545V34H157.327V8.54545H162.622ZM172.307 34.3604C171.089 34.3604 170.003 34.1491 169.05 33.7266C168.098 33.2957 167.344 32.6618 166.788 31.8249C166.241 30.9798 165.968 29.9274 165.968 28.668C165.968 27.6074 166.163 26.7166 166.552 25.9957C166.942 25.2749 167.472 24.6948 168.143 24.2557C168.814 23.8165 169.577 23.4851 170.43 23.2614C171.292 23.0376 172.195 22.8802 173.14 22.7891C174.25 22.6731 175.145 22.5653 175.824 22.4659C176.504 22.3582 176.997 22.2008 177.303 21.9936C177.61 21.7865 177.763 21.4799 177.763 21.0739V20.9993C177.763 20.2121 177.515 19.6031 177.017 19.1722C176.529 18.7414 175.833 18.5259 174.929 18.5259C173.976 18.5259 173.218 18.7372 172.655 19.1598C172.091 19.5741 171.719 20.0961 171.536 20.7259L166.639 20.3281C166.888 19.1681 167.377 18.1655 168.106 17.3203C168.835 16.4669 169.775 15.8123 170.927 15.3565C172.087 14.8925 173.43 14.6605 174.954 14.6605C176.015 14.6605 177.03 14.7848 177.999 15.0334C178.977 15.282 179.843 15.6673 180.597 16.1893C181.359 16.7113 181.96 17.3825 182.399 18.2028C182.838 19.0148 183.058 19.9884 183.058 21.1236V34H178.037V31.3526H177.887C177.581 31.9492 177.171 32.4754 176.657 32.9311C176.143 33.3786 175.526 33.7307 174.805 33.9876C174.084 34.2362 173.251 34.3604 172.307 34.3604ZM173.823 30.7063C174.602 30.7063 175.29 30.553 175.886 30.2464C176.483 29.9316 176.951 29.509 177.291 28.9787C177.631 28.4484 177.8 27.8477 177.8 27.1765V25.1506C177.635 25.2583 177.407 25.3577 177.117 25.4489C176.835 25.5317 176.516 25.6104 176.16 25.685C175.804 25.7513 175.447 25.8134 175.091 25.8714C174.735 25.9212 174.411 25.9667 174.121 26.0082C173.5 26.0993 172.957 26.2443 172.493 26.4432C172.029 26.642 171.669 26.9113 171.412 27.2511C171.155 27.5825 171.027 27.9968 171.027 28.494C171.027 29.2148 171.288 29.7659 171.81 30.147C172.34 30.5199 173.011 30.7063 173.823 30.7063ZM203.05 20.353L198.203 20.6513C198.12 20.237 197.942 19.8641 197.668 19.5327C197.395 19.1929 197.034 18.9237 196.587 18.7248C196.148 18.5176 195.622 18.4141 195.008 18.4141C194.188 18.4141 193.496 18.5881 192.933 18.9361C192.369 19.2758 192.088 19.7315 192.088 20.3033C192.088 20.759 192.27 21.1443 192.634 21.4592C192.999 21.774 193.625 22.0268 194.511 22.2173L197.966 22.9134C199.823 23.2945 201.206 23.9077 202.118 24.7528C203.029 25.598 203.485 26.7083 203.485 28.0838C203.485 29.335 203.116 30.4329 202.379 31.3775C201.65 32.3221 200.647 33.0595 199.371 33.5898C198.103 34.1119 196.641 34.3729 194.983 34.3729C192.456 34.3729 190.443 33.8467 188.943 32.7944C187.452 31.7338 186.577 30.292 186.32 28.4691L191.528 28.1957C191.686 28.9663 192.067 29.5546 192.672 29.9606C193.277 30.3583 194.051 30.5572 194.996 30.5572C195.924 30.5572 196.67 30.379 197.233 30.0227C197.805 29.6581 198.095 29.19 198.103 28.6183C198.095 28.1377 197.892 27.7441 197.494 27.4375C197.096 27.1226 196.483 26.8823 195.655 26.7166L192.349 26.0579C190.484 25.685 189.096 25.0387 188.185 24.119C187.282 23.1992 186.83 22.0268 186.83 20.6016C186.83 19.3752 187.162 18.3188 187.824 17.4322C188.496 16.5456 189.436 15.862 190.646 15.3814C191.864 14.9008 193.289 14.6605 194.921 14.6605C197.333 14.6605 199.23 15.1701 200.614 16.1893C202.006 17.2085 202.818 18.5964 203.05 20.353ZM212.114 22.9631V34H206.819V8.54545H211.965V18.2773H212.188C212.619 17.1504 213.315 16.268 214.276 15.63C215.238 14.9837 216.443 14.6605 217.893 14.6605C219.219 14.6605 220.375 14.9505 221.361 15.5305C222.355 16.1023 223.126 16.9267 223.673 18.0039C224.228 19.0728 224.501 20.353 224.493 21.8445V34H219.198V22.7891C219.207 21.6125 218.908 20.6969 218.303 20.0423C217.707 19.3877 216.87 19.0604 215.793 19.0604C215.072 19.0604 214.434 19.2137 213.879 19.5202C213.332 19.8268 212.901 20.2743 212.586 20.8626C212.279 21.4426 212.122 22.1428 212.114 22.9631Z" fill="white"/>
</g>
<defs>
<clipPath id="clip0_776_2">
<rect width="227" height="42" fill="white"/>
</clipPath>
</defs>
</svg>
