<svg width="192" height="62" viewBox="0 0 192 62" fill="none" xmlns="http://www.w3.org/2000/svg">
<g clip-path="url(#clip0_1651_3022)">
<mask id="mask0_1651_3022" style="mask-type:luminance" maskUnits="userSpaceOnUse" x="0" y="0" width="192" height="62">
<path d="M192 0H0V62H192V0Z" fill="white"/>
</mask>
<g mask="url(#mask0_1651_3022)">
<path d="M19.1994 10.8534L7.26757 55.8415H0.632751L12.5646 10.8534H19.1994Z" fill="#9AB6FF"/>
<path d="M31.8238 50.1905L24.267 22.0087H32.0589L36.3616 40.9434H36.6147L41.0982 22.0087H48.7453L53.3011 40.8332H53.5361L57.7665 22.0087H65.5402L58.0016 50.1905H49.8481L45.0753 32.4668H44.7319L39.9591 50.1905H31.8238ZM87.456 38.1911V22.0087H95.1574V50.1905H87.7633V45.0715H87.474C86.8472 46.7228 85.8048 48.05 84.3464 49.053C82.9002 50.056 81.1345 50.5575 79.0494 50.5575C77.1934 50.5575 75.5603 50.1294 74.1501 49.2732C72.74 48.4169 71.6372 47.1999 70.8417 45.622C70.0584 44.0441 69.6606 42.1543 69.6486 39.9525V22.0087H77.3501V38.5581C77.3622 40.2216 77.802 41.5366 78.6698 42.503C79.5376 43.4693 80.7006 43.9523 82.1589 43.9523C83.0869 43.9523 83.9547 43.7382 84.7623 43.3101C85.5697 42.8698 86.2206 42.2216 86.7147 41.3654C87.2209 40.5091 87.468 39.4511 87.456 38.1911ZM109.236 50.7225C107.464 50.7225 105.885 50.4106 104.499 49.7869C103.113 49.1508 102.017 48.2151 101.209 46.9796C100.414 45.7321 100.016 44.1786 100.016 42.3195C100.016 40.7538 100.299 39.4388 100.866 38.3746C101.432 37.3106 102.203 36.4543 103.18 35.8061C104.156 35.1577 105.265 34.6685 106.506 34.3383C107.76 34.0079 109.073 33.7756 110.447 33.6411C112.062 33.4698 113.364 33.3107 114.352 33.164C115.34 33.005 116.058 32.7726 116.504 32.4668C116.949 32.1611 117.172 31.7085 117.172 31.1091V30.999C117.172 29.8369 116.811 28.9379 116.088 28.3019C115.377 27.6659 114.364 27.3478 113.051 27.3478C111.665 27.3478 110.562 27.6597 109.742 28.2835C108.923 28.8951 108.38 29.6657 108.115 30.5954L100.992 30.0082C101.354 28.2958 102.065 26.8158 103.126 25.5681C104.186 24.3083 105.554 23.342 107.229 22.6692C108.917 21.9842 110.869 21.6417 113.087 21.6417C114.629 21.6417 116.106 21.8252 117.516 22.1922C118.938 22.5592 120.198 23.128 121.294 23.8985C122.403 24.6691 123.277 25.6599 123.916 26.8708C124.555 28.0695 124.874 29.5067 124.874 31.1825V50.1905H117.57V46.2824H117.353C116.907 47.1631 116.311 47.9399 115.563 48.6126C114.816 49.2732 113.918 49.793 112.87 50.1722C111.821 50.5392 110.61 50.7225 109.236 50.7225ZM111.442 45.3284C112.575 45.3284 113.575 45.1021 114.443 44.6495C115.31 44.1848 115.991 43.5609 116.485 42.7781C116.98 41.9953 117.227 41.1085 117.227 40.1177V37.1271C116.986 37.2861 116.654 37.4328 116.232 37.5675C115.823 37.6897 115.359 37.8059 114.84 37.916C114.322 38.0139 113.804 38.1055 113.286 38.1911C112.767 38.2647 112.297 38.3318 111.875 38.3931C110.972 38.5276 110.182 38.7416 109.507 39.0352C108.832 39.3287 108.308 39.7262 107.934 40.2278C107.561 40.7171 107.374 41.3286 107.374 42.0626C107.374 43.1266 107.754 43.9402 108.513 44.5027C109.284 45.0532 110.26 45.3284 111.442 45.3284ZM138.55 33.8979V50.1905H130.849V22.0087H138.189V26.9808H138.514C139.129 25.3418 140.159 24.0453 141.606 23.0912C143.052 22.1249 144.805 21.6417 146.867 21.6417C148.794 21.6417 150.476 22.0698 151.91 22.926C153.344 23.7823 154.46 25.0055 155.255 26.5955C156.051 28.1734 156.448 30.0572 156.448 32.2467V50.1905H148.746V33.6411C148.759 31.9163 148.324 30.5709 147.444 29.6046C146.566 28.626 145.354 28.1368 143.811 28.1368C142.775 28.1368 141.859 28.3631 141.063 28.8156C140.28 29.2682 139.665 29.9288 139.219 30.7972C138.785 31.6534 138.562 32.687 138.55 33.8979ZM175.028 61.3458C172.534 61.3458 170.394 60.9973 168.611 60.3001C166.839 59.6151 165.428 58.6793 164.38 57.4928C163.331 56.3064 162.65 54.9731 162.337 53.493L169.46 52.5207C169.677 53.0833 170.02 53.6092 170.49 54.0986C170.96 54.5878 171.581 54.9793 172.352 55.2727C173.136 55.5786 174.089 55.7315 175.209 55.7315C176.884 55.7315 178.265 55.3155 179.348 54.4839C180.445 53.6643 180.995 52.2882 180.995 50.3557V45.2H180.669C180.332 45.9828 179.825 46.7228 179.151 47.42C178.476 48.1172 177.607 48.686 176.547 49.1263C175.487 49.5667 174.221 49.7869 172.751 49.7869C170.665 49.7869 168.767 49.2976 167.056 48.319C165.356 47.3283 164 45.8177 162.988 43.7872C161.988 41.7445 161.488 39.1637 161.488 36.0446C161.488 32.8521 162 30.1856 163.024 28.045C164.048 25.9045 165.411 24.3021 167.11 23.2379C168.822 22.1739 170.695 21.6417 172.732 21.6417C174.287 21.6417 175.588 21.9108 176.637 22.4491C177.686 22.975 178.529 23.6355 179.168 24.4305C179.82 25.2134 180.319 25.9839 180.669 26.7424H180.959V22.0087H188.605V50.4657C188.605 52.8632 188.026 54.8691 186.87 56.4837C185.712 58.0983 184.109 59.3092 182.061 60.1166C180.023 60.936 177.68 61.3458 175.028 61.3458ZM175.191 43.9157C176.432 43.9157 177.481 43.6037 178.336 42.9799C179.204 42.3438 179.868 41.4388 180.326 40.2645C180.796 39.078 181.03 37.6591 181.03 36.0079C181.03 34.3566 180.801 32.9254 180.343 31.7145C179.885 30.4913 179.222 29.5435 178.355 28.8706C177.487 28.1979 176.432 27.8615 175.191 27.8615C173.926 27.8615 172.858 28.2102 171.991 28.9074C171.123 29.5923 170.467 30.5464 170.02 31.7696C169.575 32.9927 169.351 34.4055 169.351 36.0079C169.351 37.6346 169.575 39.0413 170.02 40.2278C170.479 41.402 171.136 42.3133 171.991 42.9616C172.858 43.5977 173.926 43.9157 175.191 43.9157Z" fill="white"/>
</g>
</g>
<defs>
<clipPath id="clip0_1651_3022">
<rect width="192" height="62" fill="white"/>
</clipPath>
</defs>
</svg>
