<svg width="721" height="371" viewBox="0 0 721 371" fill="none" xmlns="http://www.w3.org/2000/svg">
<mask id="path-1-inside-1_1629_89" fill="white">
<path d="M0 0H721V371H185.5C83.0512 371 0 287.949 0 185.5V0Z"/>
</mask>
<path d="M0 0H721H0ZM721 391H185.5C72.0055 391 -20 298.995 -20 185.5H20C20 276.903 94.0969 351 185.5 351H721V391ZM185.5 391C72.0055 391 -20 298.995 -20 185.5V0H20V185.5C20 276.903 94.0969 351 185.5 351V391ZM721 0V371V0Z" fill="#7299FE" mask="url(#path-1-inside-1_1629_89)"/>
<mask id="path-3-inside-2_1629_89" fill="white">
<path d="M65 0H721V315H222.5C135.515 315 65 244.485 65 157.5V0Z"/>
</mask>
<path d="M65 0H721H65ZM721 335H222.5C124.469 335 45 255.531 45 157.5H85C85 233.439 146.561 295 222.5 295H721V335ZM222.5 335C124.469 335 45 255.531 45 157.5V0H85V157.5C85 233.439 146.561 295 222.5 295V335ZM721 0V315V0Z" fill="#7299FE" mask="url(#path-3-inside-2_1629_89)"/>
<mask id="path-5-inside-3_1629_89" fill="white">
<path d="M133 0H721V263H264.5C191.875 263 133 204.125 133 131.5V0Z"/>
</mask>
<path d="M133 0H721V263H264.5C191.875 263 133 204.125 133 131.5V0Z" fill="#739AFD"/>
<path d="M133 0H721H133ZM721 283H264.5C180.829 283 113 215.171 113 131.5H153C153 193.08 202.92 243 264.5 243H721V283ZM264.5 283C180.829 283 113 215.171 113 131.5V0H153V131.5C153 193.08 202.92 243 264.5 243V283ZM721 0V263V0Z" fill="#7299FE" mask="url(#path-5-inside-3_1629_89)"/>
</svg>
